<?xml version="1.0" encoding="utf-8"?>
<!-- Generator: Adobe Illustrator 16.0.0, SVG Export Plug-In . SVG Version: 6.00 Build 0)  -->
<!DOCTYPE svg PUBLIC "-//W3C//DTD SVG 1.1//EN" "http://www.w3.org/Graphics/SVG/1.1/DTD/svg11.dtd">
<svg version="1.1" id="Layer_1" xmlns="http://www.w3.org/2000/svg" xmlns:xlink="http://www.w3.org/1999/xlink" x="0px" y="0px"
	 width="128px" height="128px" viewBox="0 0 128 128" enable-background="new 0 0 128 128" xml:space="preserve">
<g>
	<path fill="#30353B" d="M43.575,75.79c-5.592,0-10.516,4.524-10.998,10.104C32.096,91.475,36.237,96,41.83,96
		c5.591,0,10.516-4.525,10.998-10.104C53.311,80.314,49.167,75.79,43.575,75.79z M42.272,90.885c-2.762,0-4.807-2.234-4.569-4.988
		c0.238-2.758,2.669-4.99,5.431-4.99c2.761,0,4.807,2.232,4.569,4.99C47.464,88.65,45.032,90.885,42.272,90.885z"/>
	<path fill="#30353B" d="M126.088,59.933l-11.057-12.076c-1.199-1.312-3.701-2.383-5.557-2.383H99.352h-3.375l0.873-10.106
		C97.008,33.516,95.619,32,93.766,32h-67.5c-1.857,0-3.506,1.516-3.666,3.368l-0.054,0.624h-8.716c-1.105,0-2.077,0.894-2.172,1.996
		c-0.095,1.101,0.722,1.996,1.828,1.996h8.717h20.5c1.104,0,1.923,0.894,1.828,1.996c-0.095,1.102-1.069,1.996-2.172,1.996h-20.5
		H5.828c-1.105,0-2.077,0.894-2.172,1.996c-0.095,1.102,0.722,1.996,1.828,1.996h16.028h15.5c1.104,0,1.922,0.894,1.827,1.996
		c-0.095,1.102-1.069,1.996-2.172,1.996h-15.5H9.829c-1.105,0-2.077,0.894-2.172,1.996c-0.095,1.101,0.722,1.996,1.828,1.996h11.337
		h23.5c1.104,0,1.923,0.894,1.828,1.996c-0.095,1.101-1.069,1.996-2.172,1.996h-23.5H2.18c-1.105,0-2.077,0.894-2.172,1.996
		c-0.095,1.102,0.722,1.996,1.827,1.996h18.297h11.5c1.104,0,1.923,0.894,1.828,1.996c-0.095,1.103-1.069,1.996-2.172,1.996h-11.5
		l-1.261,14.596c-0.16,1.854,1.227,3.369,3.084,3.369h8.438c0.6-6.964,6.767-12.631,13.746-12.631s12.167,5.667,11.565,12.631
		h37.125h3.375c0.603-6.965,6.771-12.631,13.748-12.631c6.977,0,12.166,5.667,11.564,12.631h1.688c1.855,0,3.507-1.517,3.666-3.369
		l1.455-16.84C128.141,63.831,127.287,61.245,126.088,59.933z M98.043,60.631l1.02-11.788h10.125c0.959,0,2.633,0.716,3.254,1.395
		l9.517,10.394L98.043,60.631L98.043,60.631z"/>
	<path fill="#30353B" d="M109.389,75.79c-5.592,0-10.516,4.524-10.998,10.104S102.051,96,107.643,96s10.517-4.525,10.998-10.104
		C119.123,80.314,114.98,75.79,109.389,75.79z M108.084,90.885c-2.761,0-4.807-2.234-4.566-4.988c0.238-2.758,2.67-4.99,5.431-4.99
		c2.762,0,4.809,2.232,4.569,4.99C113.277,88.65,110.844,90.885,108.084,90.885z"/>
</g>
</svg>
