<?xml version="1.0" encoding="utf-8"?>
<!-- Generator: Adobe Illustrator 16.0.0, SVG Export Plug-In . SVG Version: 6.00 Build 0)  -->
<!DOCTYPE svg PUBLIC "-//W3C//DTD SVG 1.1//EN" "http://www.w3.org/Graphics/SVG/1.1/DTD/svg11.dtd">
<svg version="1.1" id="Layer_1" xmlns="http://www.w3.org/2000/svg" xmlns:xlink="http://www.w3.org/1999/xlink" x="0px" y="0px"
	 width="128px" height="128px" viewBox="0 0 128 128" enable-background="new 0 0 128 128" xml:space="preserve">
<g>
	<path fill="#FAAE26" d="M99.641,71.16c-1.731-1.368-3.934-3.067-6.015-4.654c-2.875-2.135-6.825-4.977-11.985-8.492
		c-0.629-0.429-1.295-0.864-1.979-1.302c-0.364-0.232-0.725-0.461-1.087-0.688c-6.466-4.035-14.392-8.105-16.393-9.121l-4.789,1.523
		c-1.264,1.917-6.703,9.409-14.886,10.043c-0.45,0.046-0.895,0.07-1.308,0.07c-1.845,0-3.118-0.501-3.893-1.533
		c-0.925-1.231-0.997-3.043-0.226-5.7c0.022-0.075,0.05-0.148,0.085-0.218c1.513-3.048,4.608-7.446,7.308-11.176
		c-0.521-0.081-1.064-0.161-1.621-0.244c-3.249-0.48-6.608-0.977-8.382-1.982c-0.771-0.438-1.985-1.174-3.313-1.997L14.762,64.807
		l1.379,1.535c0.056,0.068,1.658,2.061,3.913,4.878l0.042-0.057c1.105-1.49,2.843-2.345,4.768-2.345c1.616,0,3.24,0.604,4.573,1.703
		c1.264,1.035,2.121,2.398,2.539,3.84l1.545-2.106c1.106-1.496,2.845-2.351,4.772-2.351c1.617,0,3.24,0.604,4.571,1.703
		c2.279,1.869,3.248,4.804,2.66,7.336c0.1-0.004,0.199-0.018,0.3-0.018c1.615,0,3.239,0.604,4.573,1.702
		c2.249,1.854,3.224,4.741,2.683,7.248c0.182-0.017,0.364-0.028,0.55-0.028c1.613,0,3.237,0.604,4.572,1.698
		c2.98,2.452,3.728,6.728,1.665,9.527l-1.061,1.434c4.779,1.646,7.563,2.126,7.61,2.136c0.037,0.006,0.076,0.015,0.111,0.021
		c1.361,0.344,5.396,0.966,7.707-0.275c1.67-0.897,2.938-2.406,3.703-3.496l-12.477-6.021c-0.652-0.316-0.929-1.104-0.611-1.76
		c0.315-0.655,1.102-0.928,1.76-0.612l13.229,6.39c0.101-0.009,0.198-0.018,0.302,0c0.905,0.146,3.562,0.346,4.895-0.527
		c1.624-1.063,1.965-3.557,2.031-4.771L71.003,82.29c-0.63-0.365-0.845-1.171-0.479-1.8c0.365-0.631,1.168-0.846,1.801-0.48
		l16.469,9.536c1.15,0.077,3.827,0.044,5.021-0.922c2.127-1.729,1.855-4.46,1.697-5.36L76.457,71.824
		c-0.624-0.374-0.825-1.186-0.451-1.807c0.375-0.625,1.188-0.824,1.809-0.451L97.87,81.605c1.387,0.356,4.569,0.812,6.103-1.998
		c1.143-2.098,0.727-4.03-1.257-5.914L99.641,71.16z"/>
	<path fill="#FAAE26" d="M42.407,79.575c1.25-1.698,0.704-4.359-1.216-5.935c-0.863-0.714-1.891-1.104-2.898-1.104
		c-1.1,0-2.042,0.455-2.652,1.276l-8.456,11.526c-1.247,1.69-0.701,4.351,1.215,5.935c0.86,0.709,1.889,1.102,2.895,1.102
		c1.101,0,2.043-0.454,2.654-1.28l0.015-0.02L42.407,79.575z"/>
	<path fill="#FAAE26" d="M48.722,82.661c-0.862-0.709-1.892-1.101-2.898-1.101c-0.859,0-1.616,0.287-2.199,0.805
		c-0.161,0.144-6.973,9.451-6.973,9.451c-0.053,0.07-0.084,0.154-0.131,0.229c-0.116,0.188-0.219,0.38-0.296,0.584
		c-0.622,1.648,0.003,3.773,1.638,5.12c0.865,0.713,1.896,1.104,2.903,1.104c1.099,0,2.038-0.455,2.645-1.278L49.94,88.6
		C51.188,86.904,50.64,84.243,48.722,82.661z"/>
	<path fill="#FAAE26" d="M56.529,91.583c-0.864-0.71-1.894-1.103-2.899-1.103c-1.099,0-2.039,0.455-2.648,1.28
		c0,0-4.516,6.161-4.617,6.4c-0.699,1.659-0.071,3.864,1.604,5.247c0.863,0.71,1.895,1.101,2.901,1.101
		c1.099,0,2.039-0.454,2.647-1.278l4.229-5.72C58.992,95.818,58.446,93.159,56.529,91.583z"/>
	<path fill="#FAAE26" d="M29.088,78.297c1.067-1.673,0.501-4.245-1.323-5.74c-0.865-0.714-1.895-1.104-2.901-1.104
		c-1.099,0-2.04,0.454-2.651,1.277l-2.698,3.646c-1.243,1.688-0.697,4.354,1.219,5.933c0.863,0.711,1.893,1.104,2.899,1.104
		c0.838,0,1.582-0.27,2.158-0.762C25.966,82.5,29.049,78.357,29.088,78.297z"/>
	<path fill="#FAAE26" d="M90.146,36.523c-1.729-0.144-3.742-0.617-6.076-1.165c-3.646-0.857-8.187-1.923-12.95-1.923l-0.328,0.001
		c-10.746,0.103-19.494,1.512-20.802,3.352c-0.306,0.43-0.662,0.922-1.041,1.444c-0.28,0.386-0.569,0.783-0.88,1.209
		c-0.239,0.328-0.495,0.679-0.746,1.025c-2.761,3.795-6.165,8.547-7.746,11.686c-0.624,2.203-0.374,2.995-0.166,3.271
		c0.299,0.398,1.137,0.481,1.787,0.481c0.332,0,0.689-0.021,1.074-0.06c7.856-0.609,13.085-9.124,13.137-9.209
		c0.165-0.272,0.425-0.479,0.729-0.576l2.604-0.828l3.151-1.002c0.13-0.041,0.265-0.062,0.399-0.062
		c0.202,0,0.404,0.047,0.588,0.139c0.107,0.054,9.405,4.707,16.917,9.375c0.535,0.333,1.063,0.665,1.574,0.997
		c0.604,0.389,1.189,0.775,1.75,1.157c5.059,3.447,8.939,6.231,11.805,8.353c4.215,3.121,6.207,4.791,6.342,4.902l0.002,0.002
		l2.705,2.229c0.01-0.006,0.021-0.01,0.029-0.014c0.889-0.388,2.596-1.271,4.505-3.004c0.813-0.736,1.397-1.348,1.962-1.938
		c0.691-0.727,1.346-1.41,2.305-2.204c0.021-0.018,0.045-0.036,0.065-0.054L96.677,35.392
		C94.432,36.173,92.123,36.686,90.146,36.523z"/>
	<path fill="#FAAE26" d="M31.084,30.448c0.245-0.438,0.111-1.012-0.293-1.257l-9.17-5.592c-0.118-0.072-0.247-0.109-0.383-0.109
		c-0.286,0-0.544,0.157-0.691,0.419L0.121,60.185c-0.243,0.433-0.106,1.009,0.299,1.257l9.167,5.591
		c0.36,0.218,0.86,0.07,1.077-0.313L31.084,30.448z"/>
	<path fill="#FAAE26" d="M127.879,60.185l-20.424-36.272c-0.148-0.264-0.407-0.421-0.691-0.421c-0.136,0-0.263,0.037-0.382,0.108
		l-9.169,5.592c-0.406,0.248-0.544,0.823-0.299,1.256l20.423,36.271c0.218,0.39,0.708,0.534,1.08,0.313l9.162-5.589
		C127.986,61.194,128.123,60.618,127.879,60.185z"/>
</g>
</svg>
